PathFileType	4	(X/Y/Z)	/Users/itak/Documents/Research/Walk-IL/dataset/trc/00524_00183.trc
DataRate	CameraRate	NumFrames	NumMarkers	Units	OrigDataRate	OrigDataStartFrame	OrigNumFrames
100.000000	100.000000	4	53	mm	100.000000	208	557
Frame#	Time	RPSI			LPSI			L3			STRN			T10			C7			CLAV			RBAK			LBAK			LSHO			LUPA			LAEL			LAOL			LWTS			LWPS			LFRA			LIFD			LHPS			LHTS			RSHO			RUPA			RAEL			RAOL			RWTS			RWPS			RFRA			RIFD			RHTS			RHPS			RBHD			LFHD			RFHD			LBHD			LHIP			RHIP			RASI			LASI			LKNE			LTHI			LANK			LTIP			LTOE			LMT1			LMT5			LHEE			RKNE			RTHI			RANK			RTIP			RTOE			RMT1			RMT5			RHEE			
		X1	Y1	Z1	X2	Y2	Z2	X3	Y3	Z3	X4	Y4	Z4	X5	Y5	Z5	X6	Y6	Z6	X7	Y7	Z7	X8	Y8	Z8	X9	Y9	Z9	X10	Y10	Z10	X11	Y11	Z11	X12	Y12	Z12	X13	Y13	Z13	X14	Y14	Z14	X15	Y15	Z15	X16	Y16	Z16	X17	Y17	Z17	X18	Y18	Z18	X19	Y19	Z19	X20	Y20	Z20	X21	Y21	Z21	X22	Y22	Z22	X23	Y23	Z23	X24	Y24	Z24	X25	Y25	Z25	X26	Y26	Z26	X27	Y27	Z27	X28	Y28	Z28	X29	Y29	Z29	X30	Y30	Z30	X31	Y31	Z31	X32	Y32	Z32	X33	Y33	Z33	X34	Y34	Z34	X35	Y35	Z35	X36	Y36	Z36	X37	Y37	Z37	X38	Y38	Z38	X39	Y39	Z39	X40	Y40	Z40	X41	Y41	Z41	X42	Y42	Z42	X43	Y43	Z43	X44	Y44	Z44	X45	Y45	Z45	X46	Y46	Z46	X47	Y47	Z47	X48	Y48	Z48	X49	Y49	Z49	X50	Y50	Z50	X51	Y51	Z51	X52	Y52	Z52	X53	Y53	Z53	

209	2.08	-890.4193725585938	952.2330932617188	-298.8948059082031	-827.7333984375	946.5333251953125	-405.8788452148438	-848.7168579101562	1026.1220703125	-357.9321899414062	-637.6976318359375	1168.688354492188	-262.6082763671875	-854.8155517578125	1131.677978515625	-359.2216796875	-799.2179565429688	1357.309692382812	-327.1150207519531	-663.0275268554688	1266.715209960938	-271.2573547363281	-886.6024169921875	1238.523193359375	-274.6857604980469	-790.1390991210938	1308.09814453125	-420.2948913574219	-670.2619018554688	1348.091918945312	-446.5591430664062	-660.3458251953125	1223.924926757812	-512.8712158203125	-650.9620361328125	1013.266784667969	-537.3671264648438	-749.0379638671875	1011.282897949219	-517.0814819335938	-609.271240234375	817.6851196289062	-455.6305236816406	-641.1016845703125	791.1766357421875	-539.9449462890625	-635.2838134765625	937.1187133789062	-530.0944213867188	-627.7877197265625	659.7169189453125	-461.010986328125	-631.6217041015625	735.3406982421875	-524.3363037109375	-597.58154296875	738.5577392578125	-469.6579895019531	-808.2945556640625	1343.09521484375	-169.4961853027344	-851.4178466796875	1276.568481445312	-127.1164474487305	-875.4046020507812	1008.365051269531	-89.69057464599609	-910.073974609375	994.0699462890625	-144.7157287597656	-766.9061889648438	807.7977294921875	-81.88612365722656	-854.939453125	784.3363037109375	-71.78157043457031	-874.023193359375	953.6023559570312	-81.97035217285156	-766.4290771484375	646.8818359375	-78.09326934814453	-763.3237915039062	713.9452514648438	-54.00914001464844	-833.6349487304688	710.4099731445312	-63.49797439575195	-806.9630737304688	1489.52685546875	-226.0080261230469	-636.4558715820312	1576.814453125	-285.2367858886719	-697.3978881835938	1555.860473632812	-175.1597747802734	-743.5176391601562	1510.226806640625	-370.5066528320312	-681.153564453125	861.4527587890625	-474.4847717285156	-844.0267944335938	859.4554443359375	-133.4258270263672	-728.0191040039062	901.5452270507812	-155.2384948730469	-622.4791259765625	893.7555541992188	-372.951416015625	-764.0866088867188	448.8265991210938	-451.3920288085938	-703.922607421875	598.9066772460938	-451.4590759277344	-1004.215576171875	90.46000671386719	-556.1430053710938	-842.323974609375	320.3910522460938	-494.4025573730469	-878.9642333984375	38.80282974243164	-411.3663635253906	-953.618408203125	55.17814254760742	-418.7294921875	-911.5716552734375	47.87250137329102	-513.7079467773438	-1070.724975585938	113.4234161376953	-521.9298095703125	-710.2613525390625	487.6180419921875	-142.6465301513672	-794.1586303710938	732.9378662109375	-112.2528381347656	-712.018798828125	50.47478485107422	-171.5323486328125	-672.483154296875	342.8347778320312	-143.1240539550781	-512.9915161132812	55.31012725830078	-128.858154296875	-556.3297119140625	51.18354797363281	-190.792724609375	-616.1739501953125	52.60525131225586	-113.5737075805664	-739.0396118164062	37.02153778076172	-235.6279602050781	
210	2.09	-883.539306640625	952.8367919921875	-293.2138061523438	-821.735107421875	947.25439453125	-400.7254028320312	-842.477294921875	1026.670166015625	-352.5260620117188	-631.9144287109375	1169.7109375	-257.2128601074219	-848.792236328125	1132.128784179688	-353.9999084472656	-793.8026123046875	1357.974975585938	-322.2476501464844	-657.4451904296875	1267.684448242188	-266.1218872070312	-880.9389038085938	1239.10888671875	-269.6495971679688	-784.6146240234375	1308.60888671875	-415.3541259765625	-664.8646240234375	1348.721801757812	-441.6022644042969	-654.8828125	1224.5751953125	-508.0080261230469	-646.3421020507812	1014.062683105469	-533.1016845703125	-744.1049194335938	1012.253173828125	-511.6295166015625	-603.9026489257812	818.1663208007812	-452.6941833496094	-636.9144287109375	791.9990844726562	-536.76025390625	-630.762939453125	937.8714599609375	-526.3340454101562	-623.3116455078125	660.1744995117188	-458.3236389160156	-627.5382080078125	736.0017700195312	-521.4078369140625	-592.8941040039062	738.9033203125	-467.0802001953125	-802.8804931640625	1344.077026367188	-164.6085052490234	-845.8715209960938	1277.5224609375	-122.1284866333008	-868.77880859375	1009.230285644531	-84.3770751953125	-903.6600952148438	994.7546997070312	-139.2541809082031	-759.94677734375	808.8338623046875	-77.1650390625	-847.901123046875	785.2183837890625	-66.56001281738281	-867.2169189453125	954.4591064453125	-76.66867065429688	-759.1603393554688	647.9307250976562	-73.25372314453125	-756.0421142578125	715.0021362304688	-49.28185653686523	-826.4503784179688	711.3206787109375	-58.29302978515625	-801.4571533203125	1490.669067382812	-221.5323791503906	-631.02294921875	1577.6064453125	-281.3287353515625	-691.7371826171875	1557.02099609375	-171.0723724365234	-738.2869873046875	1510.853271484375	-366.2020874023438	-675.1096801757812	862.2127685546875	-469.6316223144531	-837.8258666992188	860.2340087890625	-128.5698852539062	-721.41748046875	902.17236328125	-149.9268951416016	-616.4649047851562	894.61572265625	-367.8275146484375	-753.3479614257812	448.2146301269531	-445.0023193359375	-694.852294921875	599.1869506835938	-445.4004516601562	-1000.206420898438	95.83140563964844	-555.17919921875	-833.2295532226562	321.6318054199219	-489.878173828125	-878.7020263671875	38.69649124145508	-411.3096008300781	-951.873046875	56.69390487670898	-418.0998840332031	-909.7191162109375	48.8050422668457	-513.3189086914062	-1065.5546875	120.8860321044922	-520.5414428710938	-705.1363525390625	487.1637268066406	-139.9245452880859	-787.707763671875	733.2724609375	-107.4296112060547	-711.4034423828125	50.64226150512695	-171.3821411132812	-668.3836669921875	342.1312866210938	-141.5191650390625	-511.7087707519531	52.64641571044922	-129.0342712402344	-555.5283203125	49.9523811340332	-191.0007934570312	-615.2033081054688	51.80756759643555	-113.6147003173828	-738.736328125	37.41234588623047	-235.3799438476562	
211	2.1	-876.54443359375	953.4696655273438	-287.4215698242188	-815.7299194335938	948.021484375	-395.5234680175781	-836.2900390625	1027.31103515625	-347.0420532226562	-626.0899658203125	1170.84423828125	-251.8488922119141	-842.8151245117188	1132.64697265625	-348.6061401367188	-788.4300537109375	1358.714477539062	-317.3009338378906	-651.8592529296875	1268.754150390625	-260.9912414550781	-875.2786254882812	1239.7734375	-264.4655151367188	-779.1992797851562	1309.19189453125	-410.3400268554688	-659.59912109375	1349.426879882812	-436.6515502929688	-649.5686645507812	1225.296508789062	-503.1314086914062	-641.70947265625	1014.949890136719	-528.7993774414062	-739.1527099609375	1013.227600097656	-506.0749206542969	-598.2455444335938	818.8265991210938	-449.7868041992188	-632.568603515625	792.9388427734375	-533.513916015625	-626.19921875	938.7363891601562	-522.5462036132812	-618.3385009765625	660.7993774414062	-455.5466613769531	-623.1752319335938	736.8043212890625	-518.4124755859375	-587.8341674804688	739.4339599609375	-464.5070495605469	-797.4054565429688	1345.159545898438	-159.6499328613281	-840.2449340820312	1278.588134765625	-117.0344161987305	-862.0823364257812	1010.198303222656	-79.03993988037109	-897.216552734375	995.5838623046875	-133.7381286621094	-752.9575805664062	809.9769287109375	-72.48346710205078	-840.8262329101562	786.2144775390625	-61.31591033935547	-860.330322265625	955.422119140625	-71.37923431396484	-751.8670654296875	649.0867919921875	-68.43598937988281	-748.7218017578125	716.1655883789062	-44.58705139160156	-819.2426147460938	712.342041015625	-53.04448699951172	-795.93701171875	1491.947143554688	-217.0523376464844	-625.5533447265625	1578.433959960938	-277.4714660644531	-686.0150146484375	1558.279052734375	-167.023681640625	-733.0617065429688	1511.574096679688	-361.9110107421875	-669.117919921875	863.10302734375	-464.8168029785156	-831.63671875	861.0122680664062	-123.6888580322266	-714.8099365234375	902.8096923828125	-144.6359558105469	-610.5437622070312	895.6140747070312	-362.7607421875	-741.5628662109375	447.4788513183594	-438.4723205566406	-685.237060546875	599.4583740234375	-439.3199462890625	-995.500244140625	101.7334442138672	-553.8818969726562	-823.2021484375	322.9125061035156	-485.0572204589844	-878.399169921875	38.50708770751953	-411.2174377441406	-949.8248901367188	58.33694458007812	-417.3365783691406	-907.5921020507812	49.9193115234375	-512.809326171875	-1059.4697265625	128.9722900390625	-518.7566528320312	-700.5886840820312	486.6425476074219	-137.2428894042969	-781.3727416992188	733.5670776367188	-102.6348266601562	-710.9111938476562	50.75435256958008	-171.238037109375	-664.8795776367188	341.393798828125	-139.8852844238281	-510.6615905761719	50.30410766601562	-129.1113586425781	-554.8646850585938	48.96493530273438	-191.1268615722656	-614.3972778320312	51.10355377197266	-113.5856399536133	-738.4896240234375	37.71826553344727	-235.1714477539062	
212	2.11	-869.5269775390625	954.1447143554688	-281.6046447753906	-809.7698364257812	948.8139038085938	-390.3247680664062	-830.173828125	1028.02197265625	-341.5186157226562	-620.2340698242188	1172.049926757812	-246.5608215332031	-836.888916015625	1133.218383789062	-343.0409240722656	-783.1001586914062	1359.506958007812	-312.2814025878906	-646.2653198242188	1269.891235351562	-255.8956298828125	-869.62353515625	1240.496704101562	-259.137451171875	-773.901611328125	1309.833251953125	-405.2627868652344	-654.465087890625	1350.1865234375	-431.7227783203125	-644.4387817382812	1226.072631835938	-498.2512817382812	-637.0853271484375	1015.912719726562	-524.4614868164062	-734.1927490234375	1014.165344238281	-500.4390258789062	-592.334228515625	819.6499633789062	-446.8915405273438	-628.0602416992188	793.977783203125	-530.1925048828125	-621.5969848632812	939.6983032226562	-518.7262573242188	-612.8521728515625	661.575439453125	-452.6973876953125	-618.5104370117188	737.7391967773438	-515.3433837890625	-582.3793334960938	740.1514282226562	-461.93505859375	-791.849609375	1346.311889648438	-154.628173828125	-834.5175170898438	1279.738037109375	-111.8346862792969	-855.330810546875	1011.245727539062	-73.68126678466797	-890.7448120117188	996.5409545898438	-128.1774749755859	-745.954833984375	811.2007446289062	-67.83026123046875	-833.7269897460938	787.2925415039062	-56.05616760253906	-853.3881225585938	956.4735717773438	-66.09896087646484	-744.557373046875	650.3187255859375	-63.65626907348633	-741.375732421875	717.4039306640625	-39.93060684204102	-812.0228881835938	713.449951171875	-47.76852035522461	-790.4057006835938	1493.331176757812	-212.5710296630859	-620.0482177734375	1579.27197265625	-273.6766662597656	-680.234619140625	1559.609375	-163.023193359375	-727.8458862304688	1512.351806640625	-357.6385192871094	-663.1851196289062	864.0623779296875	-460.0379028320312	-825.4150390625	861.7334594726562	-118.7509078979492	-708.2333984375	903.456787109375	-139.3993225097656	-604.7296142578125	896.7195434570312	-357.7752380371094	-728.8064575195312	446.6466674804688	-431.8477172851562	-675.1180419921875	599.716796875	-433.2491455078125	-990.031494140625	108.1707153320312	-552.216796875	-812.2495727539062	324.2278442382812	-479.9342956542969	-878.0173950195312	38.21490859985352	-411.0654296875	-947.4275512695312	60.15193176269531	-416.4359130859375	-905.1494140625	51.28445816040039	-512.1675415039062	-1052.407836914062	137.6434326171875	-516.5426025390625	-696.6146240234375	486.0890502929688	-134.5453186035156	-775.2454833984375	733.8309936523438	-97.88240051269531	-710.5396728515625	50.80735015869141	-171.0943756103516	-661.9664916992188	340.6498718261719	-138.1849975585938	-509.8568115234375	48.31867218017578	-129.0757751464844	-554.3428955078125	48.20317840576172	-191.1515197753906	-613.7647705078125	50.46832656860352	-113.4775543212891	-738.2926635742188	37.95109939575195	-234.9982452392578	
